{"title":"Cinderella.III.A.Twist.in.Time.2007.1080p.BluRay.x264-AiHD","uid":11996941,"size":4694614832,"categoryP":"video","categoryS":"hd___movies","magnet":"?xt=urn:btih:84fa588e28d82ebad93f0912c97577577eb93215&amp;dn=Cinderella.III.A.Twist.in.Time.2007.1080p.BluRay.x264-AiHD&amp;tr=udp%3A%2F%2Ftracker.openbittorrent.com%3A80&amp;tr=udp%3A%2F%2Fopen.demonii.com%3A1337&amp;tr=udp%3A%2F%2Ftracker.coppersurfer.tk%3A6969&amp;tr=udp%3A%2F%2Fexodus.desync.com%3A6969","seeders":0,"leechers":1,"uploader":"vickey1992","files":3,"time":1433686351,"description":"ALWAYS iN HiGH  Â² \n     D. 07-10-2012    Â°     Ã›Â²Ã› Ã›Ã›Ã› Â°     Ã›Â²Ã› Ã›Ã›Ã›ÃŸ         DEFiNiTiON      \n   Â°                        Ã›Ã›Ã›      Â°    Ã›Ã›Ã› Ã›ÃŸ                         Â° \n\n      . Cinderella III: A Twist in Time (2007)\n                                                                           \n     V. x264 / ~6956 kbps / 1920x1080\n     A. DTS / 1510 kbps\n     T. 73 min\n     L. EN\n\n      . Notes / Info \n\n        This is the new beginning...\n\n       &lt;a href=&quot; http://www.imdb.com/title/tt0465940/&quot; rel=&quot;nofollow&quot; target=&quot;_NEW&quot;&gt; http://www.imdb.com/title/tt0465940/&lt;/a&gt;\n\nVideo\nID                                       : 2\nFormat                                   : AVC\nFormat/Info                              : Advanced Video Codec\nFormat profile                           : &lt;a class=&quot;__cf_email__&quot; href=&quot;/cdn-cgi/l/email-protection&quot; data-cfemail=&quot;e2aa8b858aa2aed6ccd3&quot;&gt;[email&amp;#160;protected]&lt;/a&gt;&lt;script data-cfhash='f9e31' type=&quot;text/javascript&quot;&gt;\n/* &lt;![CDATA[ */!function(){try{var t=&quot;currentScript&quot;in document?document.currentScript:function(){for(var t=document.getElementsByTagName(&quot;script&quot;),e=t.length;e--;)if(t[e].getAttribute(&quot;data-cfhash&quot;))return t[e]}();if(t&amp;&amp;t.previousSibling){var e,r,n,i,c=t.previousSibling,a=c.getAttribute(&quot;data-cfemail&quot;);if(a){for(e=&quot;&quot;,r=parseInt(a.substr(0,2),16),n=2;a.length-n;n+=2)i=parseInt(a.substr(n,2),16)^r,e+=String.fromCharCode(i);e=document.createTextNode(e),c.parentNode.replaceChild(e,c)}t.parentNode.removeChild(t);}}catch(u){}}()/* ]]&gt; */&lt;/script&gt;\nFormat settings, CABAC                   : Yes\nFormat settings, ReFrames                : 4 frames\nMuxing mode                              : Header stripping\nCodec ID                                 : V_MPEG4/ISO/AVC\nDuration                                 : 1h 13mn\nBit rate                                 : 6 956 Kbps\nWidth                                    : 1 920 pixels\nHeight                                   : 1 080 pixels\nDisplay aspect ratio                     : 16:9\nFrame rate mode                          : Constant\nFrame rate                               : 23.976 fps\nColor space                              : YUV\nChroma subsampling                       : 4:2:0\nBit depth                                : 8 bits\nScan type                                : Progressive\nBits/(Pixel*Frame)                       : 0.140\nStream size                              : 3.51 GiB (80%)\nWriting library                          : x264 core 128 r2216 198a7ea\nEncoding settings                        : cabac=1 / ref=4 / deblock=1:0:0 / analyse=0x3:0x133 / me=umh / subme=7 / psy=1 / psy_rd=1.00:0.00 / mixed_ref=1 / me_range=16 / chroma_me=1 / trellis=1 / 8x8dct=1 / cqm=0 / deadzone=21,11 / fast_pskip=1 / chroma_qp_offset=-2 / threads=16 / lookahead_threads=2 / sliced_threads=0 / nr=0 / decimate=1 / interlaced=0 / bluray_compat=0 / constrained_intra=0 / bframes=3 / b_pyramid=2 / b_adapt=2 / b_bias=0 / direct=1 / weightb=1 / open_gop=0 / weightp=2 / keyint=240 / keyint_min=23 / scenecut=40 / intra_refresh=0 / rc_lookahead=40 / rc=2pass / mbtree=1 / bitrate=6956 / ratetol=1.0 / qcomp=0.60 / qpmin=10 / qpmax=51 / qpstep=4 / cplxblur=20.0 / qblur=0.5 / vbv_maxrate=40000 / vbv_bufsize=30000 / nal_hrd=none / ip_ratio=1.40 / aq=1:1.00\nLanguage                                 : English\nDefault                                  : Yes\nForced                                   : No\n\nAudio\nID                                       : 1\nFormat                                   : DTS\nFormat/Info                              : Digital Theater Systems\nMode                                     : 16\nFormat settings, Endianness              : Big\nMuxing mode                              : Header stripping\nCodec ID                                 : A_DTS\nDuration                                 : 1h 13mn\nBit rate mode                            : Constant\nBit rate                                 : 1 509 Kbps\nChannel(s)                               : 6 channels\nChannel positions                        : Front: L C R, Side: L R, LFE\nSampling rate                            : 48.0 KHz\nBit depth                                : 24 bits\nCompression mode                         : Lossy\nStream size                              : 798 MiB (18%)\nLanguage                                 : English\nDefault                                  : Yes\nForced                                   : No\n\n\n\nCinderella.III.A.Twist.in.Time.2007.1080p.BluRay.x264-AiHD","torrent":{"xt":"urn:btih:84fa588e28d82ebad93f0912c97577577eb93215","amp;dn":"Cinderella.III.A.Twist.in.Time.2007.1080p.BluRay.x264-AiHD","amp;tr":["udp%3A%2F%2Ftracker.openbittorrent.com%3A80","udp%3A%2F%2Fopen.demonii.com%3A1337","udp%3A%2F%2Ftracker.coppersurfer.tk%3A6969","udp%3A%2F%2Fexodus.desync.com%3A6969"],"infoHash":"84fa588e28d82ebad93f0912c97577577eb93215","infoHashBuffer":{"type":"Buffer","data":[132,250,88,142,40,216,46,186,217,63,9,18,201,117,119,87,126,185,50,21]},"announce":[],"urlList":[]}}